# xmcd
#
# Track frame offsets: 
#        150
#        16032
#        30727
#        45040
#        57087
#        71370
#        84130
#        97930
#        116735
#        130107
#        144992
#        160052
#        173707
#
# Disc length: 2697 seconds
#
# Revision: 3
# Processed by: cddbd v1.5.2PL0 Copyright (c) Steve Scherf et al.
# Submitted via: ExactAudioCopy v1.0b1
#
DISCID=8c0a870d
DTITLE=Various Artist - THE FILTH AND THE FURY - A SEX PISTOLS FILM CD 2
DYEAR=2000
DGENRE=Punk
TTITLE0=Anarchy In The U.K.
TTITLE1=Pretty Vacant
TTITLE2=Did You No Wrong
TTITLE3=Liar
TTITLE4=EMI (Unlimited Edition)
TTITLE5=No Feelings
TTITLE6=I Wanna Be Me
TTITLE7=Problems
TTITLE8=Tappa Zukie - Way Over (In Dub)
TTITLE9=New York Dolls - Looking For A Kiss
TTITLE10=Holidays In The Sun
TTITLE11=Bodies
TTITLE12=No Fun
EXTD=
EXTT0=
EXTT1=
EXTT2=
EXTT3=
EXTT4=
EXTT5=
EXTT6=
EXTT7=
EXTT8=
EXTT9=
EXTT10=
EXTT11=
EXTT12=
PLAYORDER=
